<svg width="203" height="49" viewBox="0 0 203 49" fill="none" xmlns="http://www.w3.org/2000/svg">
<rect width="203" height="49" fill="#00000"/>
<path d="M1 2.60465C0.999688 2.06977 3.74286 1 3.74286 1H14.2571V41.6512C14.2571 41.6512 16.9997 43.7907 17 44.3256C17.0003 44.8605 14.7143 47 14.7143 47H3.74286C3.74286 47 0.999688 44.8605 1 44.3256C1.00031 43.7907 3.74286 42.186 3.74286 42.186V5.27907C3.74286 5.27907 1.00031 3.13953 1 2.60465Z" fill="#FF0000" stroke="black"/>
<path d="M93.5005 2.5C76 1 73.5 45.5 93.5005 45.5V42.5C91.6408 42.7159 91 40.5 91 38.5V10C91.4523 7.10753 91.9976 6.22636 93.5005 6V2.5Z" fill="#FF0000" stroke="black"/>
<path d="M141 38.5V17L145 25V38.5L147.5 42C149.094 43.2656 148.809 44.0501 147.5 45.5H138.5C137.212 44.2993 136.93 43.5693 138.5 42L141 38.5Z" fill="#FF0000"/>
<path d="M153 45H150.5L141 8.5C141.034 7.02753 140.544 6.49417 138 6.5V2.5H151.5L155.5 19H156.5V13H158.5V22L153 45Z" fill="#FF0000"/>
<path d="M141 38.5V17L145 25V38.5L147.5 42C149.094 43.2656 148.809 44.0501 147.5 45.5H138.5C137.212 44.2993 136.93 43.5693 138.5 42L141 38.5Z" stroke="black"/>
<path d="M153 45H150.5L141 8.5C141.034 7.02753 140.544 6.49417 138 6.5V2.5H151.5L155.5 19H156.5V13H158.5V22L153 45Z" stroke="black"/>
<path d="M157.5 42.5L159.5 40.5V2.49999H173.5V5.49999C172.095 6.15851 171.499 6.62558 171.5 7.99999V40.5L173.5 41.5V44.5L172.5 45.5H159L157.5 45V42.5Z" fill="#FF0000"/>
<path d="M188.5 5.49999V0.999992C179.33 3.29981 176.4 6.34356 176.5 16C176.523 23.2974 178.707 26.7177 188.5 31C195.089 36.1141 194.589 38.5848 188.5 42.5V47.5C204 41.5 208.5 23.0714 188.5 14.5C185 13 184.5 5.49999 188.5 5.49999Z" fill="#FF0000"/>
<path d="M157.5 42.5L159.5 40.5V2.49999H173.5V5.49999C172.095 6.15851 171.499 6.62558 171.5 7.99999V40.5L173.5 41.5V44.5L172.5 45.5H159L157.5 45V42.5Z" stroke="black"/>
<path d="M188.5 5.49999V0.999992C179.33 3.29981 176.4 6.34356 176.5 16C176.523 23.2974 178.707 26.7177 188.5 31C195.089 36.1141 194.589 38.5848 188.5 42.5V47.5C204 41.5 208.5 23.0714 188.5 14.5C185 13 184.5 5.49999 188.5 5.49999Z" stroke="black"/>
<path d="M45 45.5H59C59.2051 44.9938 59.5513 44.7762 60.5 44.5V43C58.3829 42.2014 57.5383 41.5241 56.5 40V35.5H60.5L61.5 34L60.5 32.5H56.5V3H51L46.5 11V40C46.8435 41.1187 46.2508 41.6612 44 42.5V44.5C45 44.5 45 45.5 45 45.5Z" fill="#FF0000"/>
<path d="M45 36V32.5H38L45 20V14.5H44L34 31V36H45Z" fill="#FF0000"/>
<path d="M45 45.5H59C59.2051 44.9938 59.5513 44.7762 60.5 44.5V43C58.3829 42.2014 57.5383 41.5241 56.5 40V35.5H60.5L61.5 34L60.5 32.5H56.5V3H51L46.5 11V40C46.8435 41.1187 46.2508 41.6612 44 42.5V44.5C45 44.5 45 45.5 45 45.5Z" stroke="black"/>
<path d="M45 36V32.5H38L45 20V14.5H44L34 31V36H45Z" stroke="black"/>
<path d="M108.5 6C109.014 6.8556 109.571 7.1781 111 7.5V41C109.568 41.4049 108.801 41.6615 108.5 43C108.799 44.1779 109.231 44.6828 111 45H122V2.5H109.5L108.5 3.5C108.5 3.5 107.79 4.88401 108.5 6Z" fill="#FF0000" stroke="black"/>
<path d="M95.5 46V42.5C99.1534 40.9358 101.469 40.6255 102.5 33.5L104.5 32.5C109 35.5 101.276 45.7314 95.5 46Z" fill="#FF0000"/>
<path d="M105.5 18V4V2.5H103C103 3.5 102 4 102 4L97 2.5H95.5V6C99.3172 8.40376 100.655 10.4507 102 15L102.5 17.5C102.311 19.0227 102.392 19.6978 104 19.5C105.218 19.5457 105.598 19.2702 105.5 18Z" fill="#FF0000"/>
<path d="M95.5 46V42.5C99.1534 40.9358 101.469 40.6255 102.5 33.5L104.5 32.5C109 35.5 101.276 45.7314 95.5 46Z" stroke="black"/>
<path d="M105.5 18V4V2.5H103C103 3.5 102 4 102 4L97 2.5H95.5V6C99.3172 8.40376 100.655 10.4507 102 15L102.5 17.5C102.311 19.0227 102.392 19.6978 104 19.5C105.218 19.5457 105.598 19.2702 105.5 18Z" stroke="black"/>
<path d="M176.5 43.5V30.5C177.867 29.575 178.633 29.6514 180 30.5C181.91 38.0728 183.398 40.7659 187 42V47L181 43.5C178.451 45.7503 177.162 46.615 176.5 43.5Z" fill="#FF0000"/>
<path d="M190.5 5.5V1.5H194C194.888 3.07022 195.524 3.56075 197 3.5C198.708 1.46031 199.405 1.87649 200.5 3.5V15C199.273 16.872 198.529 17.1845 197 15C195.446 8.75981 194.164 6.31339 190.5 5.5Z" fill="#FF0000"/>
<path d="M176.5 43.5V30.5C177.867 29.575 178.633 29.6514 180 30.5C181.91 38.0728 183.398 40.7659 187 42V47L181 43.5C178.451 45.7503 177.162 46.615 176.5 43.5Z" stroke="black"/>
<path d="M190.5 5.5V1.5H194C194.888 3.07022 195.524 3.56075 197 3.5C198.708 1.46031 199.405 1.87649 200.5 3.5V15C199.273 16.872 198.529 17.1845 197 15C195.446 8.75981 194.164 6.31339 190.5 5.5Z" stroke="black"/>
<path d="M124 6.5V3H134V16H131.5C131.414 12.5499 130.851 10.6558 127 7.5L124 6.5Z" fill="#FF0000"/>
<path d="M127 14.5C128.087 14.2623 128.751 14.2822 130 14.5V32.5C129.22 32.7099 128.78 32.7274 128 32.5C126.969 28.54 126.53 25.9969 124 25.5V21.5C126.023 20.2637 126.851 19.0313 127 14.5Z" fill="#FF0000"/>
<path d="M131.5 32H134.5V45.5H124V41.5C128.212 40.822 129.949 38.9643 131.5 32Z" fill="#FF0000"/>
<path d="M124 6.5V3H134V16H131.5C131.414 12.5499 130.851 10.6558 127 7.5L124 6.5Z" stroke="black"/>
<path d="M127 14.5C128.087 14.2623 128.751 14.2822 130 14.5V32.5C129.22 32.7099 128.78 32.7274 128 32.5C126.969 28.54 126.53 25.9969 124 25.5V21.5C126.023 20.2637 126.851 19.0313 127 14.5Z" stroke="black"/>
<path d="M131.5 32H134.5V45.5H124V41.5C128.212 40.822 129.949 38.9643 131.5 32Z" stroke="black"/>
<path d="M20.3714 1H16.4857V5.13483C18.0149 6.51535 18.4647 7.19696 18.4286 8.23596V19.0899C18.4286 19.0899 18.5011 22.6777 16 22.7079V26.3258C17.7063 26.5229 18.2616 27.0755 18.4286 28.9101V41.8315C18.4286 41.8315 19.8857 44.9326 21.3429 45.9663C22.8 47 24.7429 47 24.7429 47C24.7429 47 28.1429 47 29.6 45.9663C31.0571 44.9326 33 42.3483 33 42.3483V37.1798H30.5714V38.7303H29.6V29.427C29.6 29.427 29.1143 26.8427 28.1429 25.809C27.1714 24.7753 24.2571 23.7416 24.2571 23.7416C24.2571 23.7416 25.2286 23.7416 27.1714 21.6742C29.1143 19.6067 29.1143 16.5056 29.1143 16.5056V9.26966C29.1143 9.26966 28.6286 5.13483 26.2 3.06742C23.7714 1 20.3714 1 20.3714 1Z" fill="#FF0000" stroke="black"/>
<path d="M71.0001 33C77.5 33 77.4999 45 71.0001 45C64.5002 45 64.5001 33 71.0001 33Z" fill="#FF0000" stroke="black"/>
</svg>
